<?xml version="1.0" standalone="no"?>
<!DOCTYPE svg PUBLIC "-//W3C//DTD SVG 20010904//EN"
 "http://www.w3.org/TR/2001/REC-SVG-20010904/DTD/svg10.dtd">
<svg version="1.0" xmlns="http://www.w3.org/2000/svg"
 width="722.000000pt" height="722.000000pt" viewBox="0 0 722.000000 722.000000"
 preserveAspectRatio="xMidYMid meet">
<metadata>
Created by potrace 1.11, written by Peter Selinger 2001-2013
</metadata>
<g transform="translate(0.000000,722.000000) scale(0.100000,-0.100000)"
fill="#000000" stroke="none">
<path d="M3279 7216 c-2 -2 -51 -7 -109 -10 -103 -7 -121 -9 -245 -21 -33 -4
-78 -8 -99 -10 -22 -2 -62 -7 -90 -11 -28 -4 -60 -8 -71 -10 -66 -9 -94 -13
-122 -18 -18 -3 -48 -9 -65 -12 -36 -6 -221 -42 -253 -50 -11 -2 -33 -6 -50
-9 -16 -2 -82 -18 -145 -35 -63 -17 -124 -33 -135 -35 -34 -8 -199 -57 -220
-65 -18 -8 -183 -63 -195 -65 -3 -1 -16 -6 -30 -12 -14 -6 -56 -23 -95 -38
-94 -37 -124 -50 -160 -65 -16 -8 -32 -14 -35 -15 -30 -7 -168 -80 -164 -86 2
-5 7 -30 10 -56 2 -26 6 -59 9 -73 3 -22 7 -51 20 -140 2 -14 7 -52 11 -85 3
-33 8 -62 9 -65 2 -3 6 -37 10 -75 4 -39 9 -73 12 -77 2 -5 6 -32 8 -60 3 -29
7 -63 9 -75 3 -11 7 -43 11 -70 13 -100 25 -185 39 -283 3 -19 8 -57 11 -84 3
-27 7 -59 10 -70 2 -12 7 -43 10 -71 3 -27 8 -63 10 -80 13 -86 17 -113 20
-150 2 -23 6 -54 9 -70 4 -17 9 -50 12 -75 5 -45 9 -71 20 -132 3 -18 7 -53 9
-78 2 -25 6 -56 9 -70 3 -14 8 -43 10 -65 3 -22 7 -56 10 -75 3 -19 10 -72 16
-117 16 -124 18 -135 24 -168 3 -16 8 -55 11 -85 3 -30 10 -82 15 -115 5 -33
12 -78 14 -100 3 -22 10 -74 16 -115 5 -41 12 -91 15 -110 3 -19 14 -100 25
-180 25 -174 33 -236 45 -335 3 -27 8 -61 10 -75 2 -14 7 -47 11 -75 4 -27 8
-57 9 -65 1 -8 5 -42 10 -75 4 -33 9 -69 11 -80 2 -11 6 -40 10 -65 5 -42 30
-223 39 -280 7 -50 15 -106 21 -159 3 -30 8 -63 10 -75 5 -29 13 -84 19 -136
7 -59 19 -148 31 -215 3 -16 7 -50 9 -75 2 -25 6 -56 9 -70 2 -14 7 -45 10
-70 4 -25 8 -56 10 -70 2 -14 8 -52 12 -85 8 -67 9 -74 17 -130 9 -61 17 -116
22 -160 2 -22 6 -49 8 -60 3 -11 8 -47 12 -80 4 -33 9 -69 10 -80 2 -11 6 -42
10 -70 3 -27 8 -61 10 -75 2 -14 7 -45 10 -70 3 -25 8 -56 10 -70 2 -14 7 -50
10 -80 3 -30 7 -62 10 -70 2 -8 6 -37 10 -65 8 -68 14 -85 30 -85 7 0 20 -6
27 -12 21 -20 62 -43 221 -123 81 -41 147 -72 147 -68 0 3 6 1 13 -5 12 -10
156 -69 187 -77 8 -2 35 -11 60 -20 78 -28 230 -71 290 -81 19 -3 39 -9 45
-12 5 -3 16 -7 25 -8 8 -1 29 -4 45 -7 257 -49 396 -62 690 -61 209 0 306 4
405 18 188 27 220 32 248 40 9 3 37 8 62 11 24 4 52 11 62 16 10 5 18 8 18 5
0 -3 37 6 83 19 45 13 100 29 122 35 22 6 47 14 55 17 20 8 20 8 55 18 17 4
39 13 50 19 11 5 22 11 25 11 45 6 376 165 486 234 l80 50 13 97 c7 54 15 107
17 118 2 11 6 42 9 70 3 28 10 78 15 111 5 33 12 85 15 115 3 30 8 62 10 70 2
8 7 42 11 75 3 33 8 69 10 80 6 38 14 90 19 135 3 25 7 56 10 70 2 14 7 50 10
80 4 30 9 64 11 75 2 11 6 39 9 62 6 51 14 107 20 148 3 17 7 50 10 75 4 38
13 105 30 220 2 14 6 45 9 70 3 25 8 54 10 65 2 11 7 47 10 80 4 33 9 71 11
85 2 14 7 45 10 70 3 25 8 56 10 70 2 14 6 45 9 70 3 25 8 54 10 66 2 12 7 45
10 75 7 56 15 115 22 160 8 54 16 115 19 154 2 22 4 40 5 40 3 0 8 31 14 91 4
32 9 68 11 79 3 11 7 40 10 65 3 25 7 61 10 80 2 19 7 57 11 84 3 27 7 56 9
65 1 9 6 39 9 66 4 28 9 61 11 75 3 14 7 45 10 70 2 25 6 56 9 70 2 14 8 48
11 75 4 28 8 64 11 80 2 17 6 53 9 80 3 28 8 57 10 65 2 8 7 40 10 70 3 30 8
66 10 80 2 14 6 45 9 70 3 25 7 54 10 65 2 11 7 45 10 76 4 31 8 65 10 75 2
11 7 45 11 78 3 32 8 68 10 80 2 11 6 41 9 66 4 25 8 56 10 70 3 14 7 48 11
75 3 28 8 64 10 80 3 17 7 47 10 68 3 20 7 52 10 70 14 103 25 187 30 225 3
24 7 53 10 65 2 12 7 45 10 72 3 28 8 64 10 80 2 17 7 53 11 80 3 28 8 59 9
70 2 11 6 45 9 75 4 30 9 62 11 70 2 8 7 40 10 70 14 116 16 129 31 224 3 15
7 49 9 75 3 25 7 57 10 71 3 14 7 45 10 70 9 80 32 214 40 233 4 10 3 17 -3
17 -6 0 -53 20 -104 44 -51 24 -158 69 -238 101 -80 31 -154 61 -165 65 -21 9
-269 89 -295 96 -8 2 -31 8 -50 13 -64 18 -195 52 -215 56 -11 3 -29 7 -40 10
-71 16 -163 37 -180 39 -11 2 -58 10 -105 19 -47 9 -101 18 -120 21 -19 3 -44
7 -55 10 -11 2 -45 7 -75 10 -30 4 -66 8 -80 10 -30 5 -133 17 -175 21 -154
13 -195 17 -225 21 -40 6 -806 15 -811 10z m801 -110 c146 -11 207 -17 240
-21 19 -3 53 -7 75 -9 22 -3 63 -8 90 -12 28 -3 64 -8 80 -9 17 -2 30 -4 30
-5 0 -1 14 -3 30 -5 75 -10 374 -67 450 -87 22 -6 49 -12 60 -14 77 -14 455
-126 487 -144 10 -6 24 -10 31 -10 8 0 47 -14 88 -31 41 -17 79 -32 84 -33 6
-1 19 -7 30 -13 11 -6 25 -11 30 -12 21 -2 95 -36 95 -44 0 -4 -11 -12 -25
-17 -14 -6 -37 -15 -52 -21 -16 -6 -29 -10 -31 -10 -1 1 -16 -6 -32 -14 -30
-16 -241 -94 -270 -100 -8 -2 -15 -4 -15 -5 0 -1 -7 -3 -15 -5 -8 -2 -60 -18
-115 -35 -55 -17 -107 -33 -115 -35 -8 -2 -51 -13 -95 -24 -44 -12 -91 -24
-105 -27 -14 -3 -52 -11 -85 -19 -77 -18 -152 -33 -190 -40 -16 -3 -68 -11
-115 -19 -118 -20 -187 -31 -305 -45 -263 -33 -464 -44 -800 -44 -233 -1 -457
7 -540 19 -16 2 -59 6 -95 8 -36 3 -83 7 -105 10 -22 3 -78 11 -125 17 -47 6
-96 12 -110 14 -14 2 -56 8 -95 15 -38 6 -81 13 -95 15 -14 2 -25 4 -25 5 0 1
-11 3 -25 6 -29 4 -90 16 -105 20 -5 1 -21 4 -35 7 -38 7 -161 37 -200 48 -19
5 -44 11 -55 13 -11 2 -27 6 -35 9 -8 3 -51 15 -95 27 -44 12 -89 25 -100 30
-11 5 -33 12 -50 16 -16 4 -32 8 -35 9 -17 4 -88 28 -105 35 -11 5 -47 18 -80
30 -33 11 -106 40 -162 62 -111 45 -112 48 -33 78 19 7 49 19 65 26 109 48
474 166 613 199 9 3 35 9 57 15 43 11 69 18 100 24 11 2 38 9 60 15 22 5 56
13 75 16 19 3 67 12 105 20 83 16 174 32 230 40 22 3 50 8 63 11 12 2 48 7 80
10 31 3 68 7 82 9 70 12 180 21 360 31 58 4 107 8 109 10 5 4 697 -4 771 -10z
m-2884 -542 c43 -20 82 -40 85 -46 4 -6 10 -42 15 -82 4 -39 9 -78 10 -86 4
-27 14 -95 18 -125 2 -16 7 -48 10 -70 7 -53 25 -190 31 -240 3 -22 7 -51 10
-65 3 -14 8 -45 10 -70 3 -25 7 -61 9 -80 2 -19 7 -46 10 -60 3 -14 8 -47 11
-75 3 -27 10 -81 16 -120 10 -71 16 -118 25 -190 9 -72 13 -100 18 -130 4 -27
7 -50 21 -145 2 -14 7 -52 11 -85 10 -84 12 -100 14 -100 1 0 3 -18 5 -40 3
-21 7 -53 9 -70 3 -16 10 -66 16 -111 6 -44 13 -91 15 -105 3 -13 7 -48 10
-78 3 -30 7 -62 9 -70 3 -9 7 -41 11 -72 3 -31 7 -65 9 -75 2 -11 7 -44 10
-74 4 -30 8 -66 11 -80 5 -32 23 -161 30 -220 3 -25 8 -56 10 -70 2 -14 7 -43
10 -65 2 -22 9 -73 15 -113 5 -40 12 -94 15 -120 3 -26 8 -58 10 -72 10 -60
16 -99 19 -131 5 -46 16 -127 22 -169 3 -19 7 -46 9 -60 1 -14 8 -63 15 -110
17 -124 17 -120 24 -185 4 -33 9 -67 11 -75 2 -8 7 -42 11 -75 3 -33 8 -69 10
-80 5 -24 12 -78 19 -130 5 -46 24 -189 30 -225 12 -85 17 -118 22 -145 2 -16
6 -48 8 -70 2 -22 6 -58 9 -80 9 -60 25 -184 30 -235 9 -80 16 -134 23 -185 4
-27 6 -53 5 -57 -1 -3 6 -48 14 -100 8 -51 17 -107 18 -124 2 -16 6 -39 9 -50
3 -10 9 -37 12 -59 3 -22 8 -56 11 -75 14 -82 15 -78 -40 -94 -112 -32 -104
-34 -111 21 -4 26 -9 59 -11 73 -5 32 -15 101 -28 205 -12 88 -24 178 -31 220
-3 17 -7 53 -10 80 -3 28 -8 57 -10 65 -2 8 -7 41 -10 73 -4 32 -8 68 -11 80
-2 12 -6 46 -10 75 -3 29 -7 63 -10 75 -8 40 -12 72 -19 137 -4 36 -9 74 -11
84 -2 11 -6 42 -9 69 -3 28 -8 53 -9 56 -2 3 -7 35 -10 71 -4 36 -9 74 -11 85
-2 11 -7 40 -10 65 -3 25 -7 56 -10 70 -2 14 -7 45 -9 70 -3 25 -7 61 -10 80
-3 19 -10 70 -16 113 -7 43 -13 88 -15 100 -2 12 -7 47 -10 77 -7 63 -9 79
-19 135 -3 22 -8 60 -11 85 -2 25 -6 54 -9 66 -2 11 -7 45 -10 75 -3 30 -8 63
-10 74 -4 22 -13 87 -21 155 -3 25 -7 56 -10 70 -3 14 -7 41 -9 60 -4 30 -30
222 -41 300 -2 14 -6 48 -10 75 -3 28 -8 61 -10 75 -2 14 -6 45 -9 70 -3 25
-8 54 -10 65 -2 11 -7 47 -10 80 -4 33 -9 67 -11 75 -3 8 -7 35 -9 60 -3 25
-7 59 -10 75 -8 50 -16 108 -22 155 -3 25 -7 56 -10 70 -2 14 -6 45 -9 70 -5
49 -11 95 -19 150 -3 19 -8 52 -11 73 -3 20 -7 54 -10 75 -3 20 -8 53 -10 72
-3 19 -8 53 -11 75 -4 22 -8 54 -9 70 -2 17 -5 46 -9 65 -3 19 -10 71 -16 115
-6 44 -13 96 -16 115 -3 19 -7 55 -10 80 -3 25 -7 52 -9 60 -2 8 -7 42 -10 75
-3 33 -8 71 -11 85 -2 14 -7 43 -10 65 -2 22 -7 54 -9 70 -3 17 -7 50 -10 75
-3 25 -8 56 -11 69 -3 13 -7 46 -10 75 -3 28 -7 62 -10 76 -3 14 -7 43 -10 65
-2 22 -7 54 -9 70 -11 71 -17 145 -12 145 2 0 40 -16 83 -36z m4900 9 c-2 -10
-7 -40 -11 -68 -4 -27 -8 -61 -10 -75 -2 -14 -6 -43 -9 -65 -15 -112 -19 -142
-22 -160 -2 -11 -7 -43 -9 -71 -3 -28 -8 -61 -10 -74 -7 -38 -15 -93 -20 -141
-2 -24 -7 -60 -10 -79 -3 -19 -8 -53 -10 -75 -2 -22 -6 -49 -8 -60 -3 -11 -8
-47 -12 -80 -4 -32 -9 -68 -11 -79 -3 -17 -6 -38 -19 -146 -5 -40 -15 -110
-19 -139 -3 -14 -8 -51 -11 -81 -3 -30 -8 -62 -10 -70 -2 -8 -6 -37 -10 -65
-3 -27 -8 -63 -10 -80 -3 -16 -7 -50 -10 -75 -2 -25 -7 -56 -9 -70 -3 -14 -7
-45 -10 -70 -3 -25 -8 -54 -10 -65 -2 -11 -7 -49 -11 -85 -4 -36 -9 -72 -10
-80 -2 -8 -6 -37 -9 -65 -4 -27 -9 -63 -12 -80 -2 -16 -6 -46 -9 -65 -2 -19
-11 -84 -20 -145 -19 -139 -22 -156 -30 -235 -4 -36 -9 -68 -11 -72 -2 -3 -7
-30 -10 -60 -3 -29 -7 -64 -9 -78 -1 -14 -5 -43 -8 -65 -4 -22 -9 -60 -12 -85
-4 -25 -8 -56 -10 -70 -3 -14 -7 -45 -9 -70 -3 -25 -7 -54 -10 -65 -2 -11 -7
-49 -11 -85 -3 -36 -8 -72 -10 -80 -2 -8 -7 -39 -10 -69 -4 -30 -9 -63 -11
-75 -2 -12 -6 -41 -9 -66 -3 -25 -7 -54 -9 -65 -2 -11 -7 -49 -11 -85 -4 -36
-8 -67 -10 -70 -1 -3 -6 -30 -9 -60 -8 -66 -12 -96 -26 -200 -13 -94 -16 -119
-25 -185 -4 -27 -8 -61 -10 -75 -2 -14 -6 -45 -10 -70 -3 -25 -8 -56 -10 -70
-2 -14 -7 -45 -10 -70 -5 -40 -14 -105 -30 -220 -3 -19 -8 -55 -11 -80 -2 -25
-7 -56 -9 -70 -3 -14 -7 -50 -11 -80 -3 -30 -8 -64 -10 -75 -2 -11 -6 -40 -9
-65 -5 -42 -7 -59 -19 -135 -3 -16 -7 -50 -10 -75 -3 -25 -8 -61 -10 -80 -3
-19 -8 -51 -11 -70 -2 -19 -7 -51 -9 -70 -3 -19 -8 -55 -11 -80 -15 -116 -19
-124 -49 -115 -11 3 -28 7 -36 10 -8 2 -28 8 -45 15 -16 6 -31 11 -32 11 -24
-7 -26 12 -8 129 2 14 7 45 10 70 3 25 8 56 10 70 2 14 6 44 9 68 3 23 9 61
12 85 4 23 8 53 9 67 3 25 10 80 21 155 3 22 7 47 9 55 2 8 7 44 10 80 4 36 9
74 11 85 4 22 12 73 19 130 2 22 6 49 9 60 2 11 7 47 10 80 13 104 22 171 30
210 2 11 7 46 11 79 3 32 8 68 10 80 4 19 13 88 20 146 1 14 5 43 8 65 4 22 9
58 12 80 3 23 7 50 9 60 2 11 7 47 11 80 4 32 8 67 10 76 2 9 6 40 10 70 4 30
9 69 11 88 2 19 6 46 9 60 3 24 31 227 40 296 10 78 15 112 19 135 3 14 8 45
11 70 3 25 7 61 10 80 3 19 7 51 10 70 8 69 15 115 19 140 3 14 8 48 11 75 3
28 7 61 10 75 2 14 7 45 10 70 3 25 7 56 10 70 4 26 14 100 21 160 2 19 8 65
14 103 6 37 12 85 15 107 9 73 15 115 19 140 3 14 7 48 11 75 6 49 9 71 21
150 3 22 7 54 9 70 3 27 18 134 30 215 2 14 7 45 10 70 3 25 8 61 11 80 2 19
6 51 9 70 2 19 6 49 8 65 10 56 21 138 32 230 6 47 14 108 19 135 3 14 7 45
10 70 3 25 8 54 10 65 2 11 7 47 10 80 4 33 9 67 11 75 3 14 6 37 21 160 3 25
7 52 10 61 2 9 7 38 9 65 9 91 17 114 40 114 13 0 75 27 115 50 25 14 39 11
36 -7z m-4672 -100 c4 -5 12 -9 17 -9 5 -1 10 -2 12 -4 1 -1 9 -3 17 -5 15 -4
122 -40 150 -52 8 -3 24 -8 35 -10 11 -1 29 -7 40 -13 11 -5 70 -23 130 -40
61 -17 126 -35 145 -40 107 -30 439 -101 540 -115 25 -3 52 -8 60 -10 9 -3 34
-7 55 -10 22 -2 56 -7 75 -10 19 -3 58 -7 85 -10 28 -2 59 -6 70 -9 11 -2 58
-7 105 -11 47 -3 101 -8 122 -11 93 -11 277 -16 538 -16 307 0 512 8 660 27
19 2 60 7 90 10 61 6 195 23 226 29 10 2 44 7 74 12 30 4 57 8 60 9 3 0 26 4
51 8 25 4 59 10 75 14 16 3 38 7 49 8 11 2 20 4 20 5 0 1 10 3 22 6 66 12 222
49 323 76 63 16 129 34 145 38 17 4 42 13 58 19 15 6 38 13 50 15 12 3 74 23
137 46 169 61 153 60 146 9 -3 -24 -8 -57 -11 -74 -10 -63 -17 -111 -20 -135
-1 -14 -6 -47 -10 -75 -3 -27 -8 -63 -10 -78 -13 -96 -33 -239 -40 -287 -11
-77 -26 -180 -30 -215 -3 -22 -7 -51 -9 -65 -8 -47 -19 -125 -20 -150 -1 -19
-6 -25 -21 -23 -20 2 -58 10 -62 13 -2 2 -6 3 -10 4 -5 2 -28 8 -53 15 -25 7
-52 15 -60 17 -8 2 -58 14 -112 28 -53 14 -111 28 -129 31 -18 3 -35 8 -39 10
-4 2 -20 7 -36 9 -16 3 -40 8 -54 11 -14 3 -50 9 -80 15 -30 6 -66 12 -80 15
-13 3 -40 7 -60 10 -20 3 -47 8 -60 11 -14 2 -38 6 -55 9 -59 7 -120 16 -145
20 -14 2 -54 7 -90 10 -36 3 -72 7 -80 10 -8 2 -53 7 -100 10 -47 4 -107 9
-135 11 -27 3 -82 6 -121 8 -39 2 -75 5 -80 8 -11 7 -904 2 -964 -5 -25 -3
-85 -8 -135 -12 -49 -3 -103 -8 -120 -9 -128 -13 -173 -18 -195 -21 -14 -2
-50 -7 -80 -10 -66 -8 -84 -10 -285 -44 -66 -11 -131 -23 -145 -26 -14 -3 -47
-9 -75 -15 -70 -13 -94 -18 -113 -24 -9 -3 -30 -8 -47 -11 -16 -3 -88 -20
-160 -39 -71 -18 -131 -33 -132 -32 0 0 -4 28 -7 61 -4 33 -9 69 -11 80 -2 11
-7 43 -11 70 -3 28 -7 59 -8 70 -2 11 -6 45 -10 75 -4 30 -10 69 -12 85 -3 17
-7 48 -10 70 -8 70 -13 109 -18 135 -2 14 -7 45 -10 70 -3 25 -8 54 -10 66 -2
11 -7 45 -10 75 -4 30 -8 65 -10 79 -2 14 -7 45 -10 70 -4 25 -9 62 -12 83 -4
27 -1 37 9 37 7 0 17 -3 21 -7z m650 -5735 c8 -34 290 -190 516 -286 207 -88
459 -161 645 -187 23 -3 52 -7 65 -10 129 -25 505 -20 650 9 14 3 42 7 62 10
21 3 57 11 80 16 24 6 52 12 63 14 11 2 20 4 20 5 0 3 11 6 51 15 44 9 153 46
257 85 100 37 306 129 317 141 3 3 34 20 70 39 94 50 243 143 256 159 18 25
185 -33 169 -58 -2 -3 -6 -24 -9 -46 -9 -54 -15 -86 -18 -89 -30 -29 -325
-179 -438 -222 -36 -14 -74 -29 -85 -34 -24 -10 -118 -41 -195 -64 -195 -58
-426 -103 -620 -120 -42 -4 -313 -17 -335 -17 -44 1 -267 13 -295 16 -85 9
-163 18 -178 21 -9 1 -37 6 -62 10 -25 4 -54 9 -65 11 -11 3 -36 7 -55 10
-119 19 -395 102 -565 169 -153 60 -421 199 -435 226 -4 8 -10 40 -14 71 -3
31 -7 62 -8 69 -2 7 25 21 67 35 87 28 82 28 89 2z"/>
</g>
</svg>
