<svg id="Layer_1" data-name="Layer 1" xmlns="http://www.w3.org/2000/svg" viewBox="0 0 261.88 360.95"><defs><style>.cls-1,.cls-2{fill:none;stroke:#231f20;}.cls-1,.cls-2,.cls-3{stroke-miterlimit:10;}.cls-2{stroke-width:5px;}.cls-3{fill:#96a1be;stroke:#2b3990;}.cls-4{fill:#ccd3eb;}.cls-5{fill:#fff;}</style></defs><title>logoDraft</title><line class="cls-1" x1="188.16" y1="336.87" x2="188.16" y2="336.87"/><path class="cls-1" d="M359.53,469.63" transform="translate(-143.47 -134.87)"/><path class="cls-1" d="M383.46,232.16" transform="translate(-143.47 -134.87)"/><path class="cls-2" d="M401.67,163.15,359.84,469.43c-47.9,30.72-118.62,32.91-171.37.2-4-29-42.14-306.59-42.14-306.59" transform="translate(-143.47 -134.87)"/><path class="cls-3" d="M193.24,425.56c-6.18-51.69-16.76-159.15-21.1-195.46,25.39-4.27,116.71-28.11,203.08,5.15-5.69,48.3-22.42,190.12-26.05,220.89-47.31,33.13-99.77,36.07-151.8-2.51-.05-.47,0-2.64,0-2.64A249.26,249.26,0,0,1,193.24,425.56Z" transform="translate(-143.47 -134.87)"/><path class="cls-2" d="M160.28,167.1,200,457.65l.1.69c52.44,32.16,99.71,29.78,147.49-.85,4.48-32.82,39.88-289.18,39.88-289.18" transform="translate(-143.47 -134.87)"/><path class="cls-2" d="M188.47,457.79c52.64-16.32,123.16-15.27,171.06,0" transform="translate(-143.47 -134.87)"/><path class="cls-2" d="M149.45,163c76.94-35.36,180-33.08,250.05,0C329.49,196.13,226.39,198.41,149.45,163Z" transform="translate(-143.47 -134.87)"/><text x="-143.47" y="-134.87"></text><path class="cls-2" d="M167,232.2c64-19.84,149.73-18.56,208,0" transform="translate(-143.47 -134.87)"/><path class="cls-2" d="M169.08,232.2c64,19.83,149.74,18.55,208,0" transform="translate(-143.47 -134.87)"/><path class="cls-4" d="M279.82,438.41h-9.94c-28.24-6.88-51.52-30.16-51.52-58.61V327.26a51.89,51.89,0,0,1,51.73-51.74H280a51.89,51.89,0,0,1,51.73,51.74V379.8C331.76,408.25,308.48,431.53,279.82,438.41Z" transform="translate(-143.47 -134.87)"/><path class="cls-5" d="M231.77,346.16l-12.41-.07V325.3a51.89,51.89,0,0,1,51.73-51.74h5.11c0,16.2-.1,55.42-.12,72.85Z" transform="translate(-143.47 -134.87)"/><path class="cls-2" d="M279.68,437.88h-9.94c-28.24-6.88-51.52-30.16-51.52-58.62V326.73A51.89,51.89,0,0,1,270,275h9.94a51.89,51.89,0,0,1,51.73,51.74v52.53C331.63,407.72,308.35,431,279.68,437.88Z" transform="translate(-143.47 -134.87)"/><line class="cls-2" x1="131.59" y1="111.73" x2="131.59" y2="213.48"/><line class="cls-2" x1="74.76" y1="210.65" x2="188.16" y2="211.29"/></svg>